<?xml version="1.0" standalone="no"?>
<!DOCTYPE svg PUBLIC "-//W3C//DTD SVG 20010904//EN"
 "http://www.w3.org/TR/2001/REC-SVG-20010904/DTD/svg10.dtd">
<svg version="1.0" xmlns="http://www.w3.org/2000/svg"
 width="21.000000pt" height="27.000000pt" viewBox="0 0 21.000000 27.000000"
 preserveAspectRatio="xMidYMid meet">

<g transform="translate(0.000000,27.000000) scale(0.100000,-0.100000)"
fill="#000000" stroke="none">
<path d="M0 238 l0 -32 32 30 c18 16 35 30 37 32 2 1 -12 2 -32 2 -35 0 -37
-2 -37 -32z"/>
<path d="M151 268 c2 -2 16 -14 32 -27 l27 -24 0 26 c0 24 -4 27 -32 27 -17 0
-29 -1 -27 -2z"/>
<path d="M55 210 c-14 -15 -16 -29 -11 -60 7 -42 -7 -53 -32 -28 -9 9 -12 -3
-12 -55 0 -59 2 -67 19 -67 19 0 21 9 40 155 5 45 9 50 31 50 27 0 30 -14 17
-67 -7 -25 -5 -28 17 -28 13 0 27 7 30 16 10 26 7 79 -6 92 -19 19 -73 14 -93
-8z"/>
<path d="M181 99 c-19 -25 -30 -30 -56 -27 -28 3 -33 0 -47 -34 l-17 -38 75 0
74 0 0 65 c0 36 -1 65 -2 64 -2 0 -14 -14 -27 -30z"/>
</g>
</svg>
